HIERARCHY
ROOT Hips
{
	OFFSET 0.000000 0.000000 0.000000
	CHANNELS 6 Xposition Yposition Zposition Zrotation Yrotation Xrotation 
	JOINT LeftUpLeg_virtual
	{
		OFFSET 0.000000 0.000000 0.000000
		CHANNELS 3 Zrotation Yrotation Xrotation
		JOINT LeftUpLeg
		{
			OFFSET 10.205400 -3.823500 0.155100
			CHANNELS 3 Zrotation Yrotation Xrotation
			JOINT LeftLeg
			{
				OFFSET 0.708757 -12.982077 0.567790
				CHANNELS 3 Zrotation Yrotation Xrotation
				JOINT LeftFoot
				{
					OFFSET -0.708756 -10.717838 -2.184338
					CHANNELS 3 Zrotation Yrotation Xrotation
					JOINT LeftToeBase
					{
						OFFSET 0.108149 -7.191104 7.560241
						CHANNELS 3 Zrotation Yrotation Xrotation
						End Site
						{
							OFFSET 0.000000 0.000000 0.000000
						}
					}
				}
			}
		}
	}
	JOINT RightUpLeg_virtual
	{
		OFFSET 0.000000 0.000000 0.000000
		CHANNELS 3 Zrotation Yrotation Xrotation
		JOINT RightUpLeg
		{
			OFFSET -10.205400 -3.823500 0.005500
			CHANNELS 3 Zrotation Yrotation Xrotation
			JOINT RightLeg
			{
				OFFSET -0.708756 -12.982134 0.610632
				CHANNELS 3 Zrotation Yrotation Xrotation
				JOINT RightFoot
				{
					OFFSET 0.708754 -10.717769 -1.945823
					CHANNELS 3 Zrotation Yrotation Xrotation
					JOINT RightToeBase
					{
						OFFSET -0.108140 -7.191069 7.372968
						CHANNELS 3 Zrotation Yrotation Xrotation
						End Site
						{
							OFFSET 0.000000 0.000000 0.000000
						}
					}
				}
			}
		}
	}
	JOINT Spine_virtual
	{
		OFFSET 0.000000 0.000000 0.000000
		CHANNELS 3 Zrotation Yrotation Xrotation
		JOINT Spine
		{
			OFFSET 0.000000 6.876099 0.125700
			CHANNELS 3 Zrotation Yrotation Xrotation
			JOINT Spine1
			{
				OFFSET 0.000000 8.022060 0.146608
				CHANNELS 3 Zrotation Yrotation Xrotation
				JOINT Spine2
				{
					OFFSET 0.000000 9.168068 0.167552
					CHANNELS 3 Zrotation Yrotation Xrotation
					JOINT Neck_virtual
					{
						OFFSET 0.000000 0.000000 0.000000
						CHANNELS 3 Zrotation Yrotation Xrotation
						JOINT Neck
						{
							OFFSET 0.000000 10.314075 0.188496
							CHANNELS 3 Zrotation Yrotation Xrotation
							JOINT Head
							{
								OFFSET 0.000000 7.643700 -2.377400
								CHANNELS 3 Zrotation Yrotation Xrotation
								End Site
								{
									OFFSET 0.000000 0.000000 0.000000
								}
							}
						}
					}
					JOINT LeftShoulder_virtual
					{
						OFFSET 0.000000 0.000000 0.000000
						CHANNELS 3 Zrotation Yrotation Xrotation
						JOINT LeftShoulder
						{
							OFFSET 4.392200 8.824978 0.174984
							CHANNELS 3 Zrotation Yrotation Xrotation
							JOINT LeftArm
							{
								OFFSET 8.771219 -2.981674 -0.026999
								CHANNELS 3 Zrotation Yrotation Xrotation
								JOINT LeftForeArm
								{
									OFFSET 8.512804 0.000000 -0.000000
									CHANNELS 3 Zrotation Yrotation Xrotation
									JOINT LeftHand
									{
										OFFSET 18.484802 0.000000 -0.000000
										CHANNELS 3 Zrotation Yrotation Xrotation
										End Site
										{
											OFFSET 0.000000 0.000000 0.000000
										}
									}
								}
							}
						}
					}
					JOINT RightShoulder_virtual
					{
						OFFSET 0.000000 0.000000 0.000000
						CHANNELS 3 Zrotation Yrotation Xrotation
						JOINT RightShoulder
						{
							OFFSET -4.392200 8.824993 0.141379
							CHANNELS 3 Zrotation Yrotation Xrotation
							JOINT RightArm
							{
								OFFSET -8.771282 -2.981682 -0.094208
								CHANNELS 3 Zrotation Yrotation Xrotation
								JOINT RightForeArm
								{
									OFFSET -8.494598 0.000000 0.000000
									CHANNELS 3 Zrotation Yrotation Xrotation
									JOINT RightHand
									{
										OFFSET -18.483803 0.000000 0.000001
										CHANNELS 3 Zrotation Yrotation Xrotation
										End Site
										{
											OFFSET 0.000000 0.000000 0.000000
										}
									}
								}
							}
						}
					}
				}
			}
		}
	}
}
MOTION
Frames: 9
Frame Time: 0.033333
6.876344 36.148651 -15.091848 179.883318 -36.296517 -179.709954 -1.160321 -8.014126 13.078828 -3.023162 -7.576658 -12.713970 8.421669 5.070345 18.523241 0.912847 -0.108976 5.095647 0.000000 0.000000 0.000000 3.982763 -6.926707 13.209969 0.785446 4.785831 -9.603272 -4.955256 4.077841 18.393163 8.801547 3.621026 1.940266 0.000000 0.000000 0.000000 1.487486 -3.082515 -1.449282 1.778887 3.142148 -15.735111 -0.496317 -1.197432 8.445108 -0.012421 0.022280 0.039076 -0.684061 0.901813 9.518441 2.209851 -4.555729 24.551598 0.000000 0.000000 0.000000 1.028129 1.368500 6.056353 -5.904392 -10.015582 0.823966 -38.253550 26.237168 62.768359 -75.621778 -87.059353 82.113169 0.000000 0.000000 0.000000 -3.346546 2.464799 5.349870 21.059519 9.728936 5.550633 35.458729 35.587690 -2.470697 -5.389541 34.535455 -2.176446 0.000000 0.000000 0.000000 
6.872463 36.140339 -15.147716 179.934353 -36.265951 -179.661747 -1.165215 -8.084802 13.080598 -2.938847 -7.544542 -12.691442 8.472001 5.077550 18.675954 0.897850 -0.119149 4.888963 0.000000 0.000000 0.000000 4.009618 -6.952863 13.157207 0.870485 4.732742 -9.494339 -4.997319 4.093767 18.288427 8.840261 3.637314 1.904838 0.000000 0.000000 0.000000 1.470740 -3.097590 -1.464348 1.721093 3.092985 -15.873887 -0.391261 -1.228930 8.478154 -0.051376 -0.006167 0.063322 -0.547400 0.877777 9.576262 2.127517 -4.301927 24.048171 0.000000 0.000000 0.000000 1.177171 1.445496 6.116278 -6.092971 -9.867556 0.888801 -38.552549 26.677005 62.713445 -77.797248 -87.109781 84.223391 0.000000 0.000000 0.000000 -3.214491 2.488335 5.450693 21.254801 9.748988 5.848146 35.978261 34.303799 -1.695687 -5.478769 34.677929 -2.222815 0.000000 0.000000 0.000000 
6.866823 36.132534 -15.218634 179.900598 -36.196328 -179.658987 -1.250701 -8.090567 13.176967 -2.884054 -7.559410 -12.639746 8.546367 5.084410 18.776024 0.898696 -0.137337 4.793389 0.000000 0.000000 0.000000 3.993217 -7.009156 13.139230 0.843330 4.754321 -9.363781 -4.936654 4.131178 18.247609 8.950311 3.527365 1.865763 0.000000 0.000000 0.000000 1.387332 -3.050110 -1.483100 1.626829 3.060451 -15.910089 -0.275578 -1.216486 8.546259 -0.010576 -0.026859 0.024929 -0.482642 0.906078 9.637714 1.918202 -4.114654 23.382114 0.000000 0.000000 0.000000 1.265734 1.416860 6.193760 -6.241971 -9.750485 0.964411 -38.725697 27.061553 62.656091 -80.436911 -86.974440 86.917518 0.000000 0.000000 0.000000 -3.114851 2.535203 5.519077 21.460591 9.768519 6.170352 36.805045 32.179589 -0.498310 -5.664199 34.831738 -2.326019 0.000000 0.000000 0.000000 
6.862912 36.122128 -15.291436 179.933629 -36.155548 -179.737466 -1.270099 -8.165442 13.272346 -2.823590 -7.636775 -12.598024 8.596325 4.928669 18.903459 0.977462 -0.120979 4.659045 0.000000 0.000000 0.000000 3.934383 -7.154922 13.137141 1.055333 4.533149 -9.198451 -5.060249 4.166885 18.186292 8.970558 3.757681 1.873014 0.000000 0.000000 0.000000 1.378329 -3.320097 -1.390904 1.565216 3.205503 -15.933436 -0.153208 -1.126563 8.538312 0.013899 0.083600 0.043743 -0.453318 0.984135 9.674844 1.640610 -3.893456 22.574231 0.000000 0.000000 0.000000 1.303861 1.457453 6.266371 -6.359674 -9.491749 1.047172 -39.004123 27.497570 62.606361 -82.183083 -86.790326 88.800744 0.000000 0.000000 0.000000 -3.061533 2.561335 5.643668 21.644094 9.814350 6.588479 37.569602 29.331049 0.834736 -5.863121 34.893876 -2.640674 0.000000 0.000000 0.000000 
6.858659 36.119484 -15.367925 179.927578 -36.265579 -179.649056 -1.336055 -8.347990 13.326999 -2.749500 -7.739370 -12.627573 8.696514 4.833138 19.034665 1.015170 -0.142313 4.550731 0.000000 0.000000 0.000000 3.934190 -7.357599 13.095297 1.122506 4.308072 -9.108679 -5.104113 4.208641 18.112133 8.993407 3.850929 1.851847 0.000000 0.000000 0.000000 1.337329 -3.346529 -1.489715 1.475919 3.202397 -15.899171 -0.095906 -1.184542 8.629620 0.033711 -0.001569 0.043648 -0.432333 1.008960 9.715700 1.337311 -3.670334 21.610283 0.000000 0.000000 0.000000 1.360427 1.498080 6.297683 -6.387610 -9.168109 1.111292 -39.077534 28.091082 62.806813 -82.079544 -86.708002 88.869524 0.000000 0.000000 0.000000 -2.993679 2.615061 5.754788 21.790040 10.023560 7.020777 38.299736 25.892183 2.345746 -5.898492 35.075405 -2.749798 0.000000 0.000000 0.000000 
6.858164 36.120060 -15.424926 179.848634 -36.366249 -179.701621 -1.474003 -8.433363 13.457202 -2.735066 -7.769908 -12.607972 8.753051 4.509834 19.144122 1.168443 -0.080508 4.507042 0.000000 0.000000 0.000000 3.911042 -7.545623 13.115271 1.072021 4.162650 -8.996302 -5.080046 4.227388 18.118996 9.183131 3.869910 1.811282 0.000000 0.000000 0.000000 1.277786 -3.501461 -1.345047 1.397436 3.274136 -15.746009 0.006368 -1.184607 8.610952 -0.035137 0.002002 0.049082 -0.431925 1.018456 9.713799 0.985531 -3.472340 20.514142 0.000000 0.000000 0.000000 1.438178 1.516820 6.367226 -6.358034 -8.805137 1.250726 -39.084320 28.775273 62.689942 -82.668676 -86.677341 89.660440 0.000000 0.000000 0.000000 -2.904486 2.688317 5.890430 21.843787 10.252668 7.420482 38.789184 21.978502 4.097971 -5.957289 35.318898 -2.951075 0.000000 0.000000 0.000000 
6.866069 36.124035 -15.460938 -179.995360 -36.571285 -179.769609 -1.375462 -8.626805 13.497587 -2.773209 -7.836099 -12.640674 8.969457 4.322742 19.250391 1.166236 -0.016002 4.443192 0.000000 0.000000 0.000000 4.076412 -7.765756 13.085738 1.089599 4.028542 -8.948599 -5.093973 4.134205 18.092444 9.229878 4.111704 1.832766 0.000000 0.000000 0.000000 1.397402 -3.599587 -1.322671 1.373041 3.354988 -15.546682 -0.004317 -1.190683 8.630804 -0.032327 0.002690 0.065973 -0.371139 0.978164 9.698816 0.745882 -3.293786 19.331498 0.000000 0.000000 0.000000 1.484660 1.511956 6.456503 -6.255673 -8.512878 1.405891 -38.998160 29.571997 62.432123 -84.752047 -86.613718 91.916820 0.000000 0.000000 0.000000 -2.830742 2.648073 5.996706 21.817950 10.519738 7.932177 39.092697 17.998802 5.953661 -6.028033 35.608761 -3.179503 0.000000 0.000000 0.000000 
6.880365 36.133850 -15.473919 179.989910 -36.697001 -179.751263 -1.425395 -8.712081 13.521572 -2.736891 -7.949304 -12.693860 9.055168 4.128012 19.240568 1.239650 -0.035976 4.506494 0.000000 0.000000 0.000000 4.103069 -7.886004 13.076975 0.994560 3.923959 -8.943569 -4.934275 4.073873 18.073331 9.240961 4.135890 1.848953 0.000000 0.000000 0.000000 1.411911 -3.696279 -1.255792 1.340732 3.429107 -15.254734 0.060150 -1.172095 8.611438 0.035071 0.016665 0.015875 -0.413854 1.006418 9.685828 0.531572 -3.171695 18.092958 0.000000 0.000000 0.000000 1.457735 1.494213 6.528994 -6.087047 -8.245275 1.548815 -38.538062 30.482328 62.188162 -89.050756 -86.475522 96.358164 0.000000 0.000000 0.000000 -2.873982 2.656830 6.050983 21.789384 10.775321 8.393942 39.102491 14.010674 7.588431 -6.046922 36.063672 -3.217073 0.000000 0.000000 0.000000 
6.909059 36.139629 -15.459270 179.848197 -36.700382 -179.692933 -1.549602 -8.660320 13.556154 -2.785758 -7.981941 -12.722950 9.046459 3.802167 19.158609 1.330334 0.114149 4.584259 0.000000 0.000000 0.000000 3.883540 -7.887799 13.058891 1.164340 3.126765 -8.963350 -5.072118 4.175290 17.956255 9.718229 4.162833 2.033280 0.000000 0.000000 0.000000 1.362126 -3.825762 -1.146263 1.296439 3.473872 -14.873405 0.076809 -1.103369 8.587213 0.028252 0.107645 0.027378 -0.342719 0.975396 9.574972 0.389020 -3.120337 16.864784 0.000000 0.000000 0.000000 1.544810 1.489906 6.485894 -5.814865 -8.138192 1.757890 -37.752511 31.338264 62.068750 -90.102933 -86.382099 97.553666 0.000000 0.000000 0.000000 -2.797223 2.662330 6.008921 21.695218 11.039566 8.754685 38.999513 10.277389 8.792041 -6.128745 36.636028 -3.702057 0.000000 0.000000 0.000000 
